<?xml version="1.0" encoding="UTF-8" standalone="no"?>
<!DOCTYPE svg PUBLIC "-//W3C//DTD SVG 1.1//EN"
 "http://www.w3.org/Graphics/SVG/1.1/DTD/svg11.dtd">
<!-- Generated by graphviz version 2.40.1 (20161225.0304)
 -->
<!-- Title: %3 Pages: 1 -->
<svg width="1067pt" height="447pt"
 viewBox="0.00 0.00 1067.20 447.33" xmlns="http://www.w3.org/2000/svg" xmlns:xlink="http://www.w3.org/1999/xlink">
<g id="graph0" class="graph" transform="scale(1 1) rotate(0) translate(4 443.328)">
<title>%3</title>
<polygon fill="#ffffff" stroke="transparent" points="-4,4 -4,-443.328 1063.196,-443.328 1063.196,4 -4,4"/>
<!-- 8 -->
<g id="node1" class="node">
<title>8</title>
<ellipse fill="none" stroke="#ff0000" cx="437.598" cy="-389.73" rx="39.6962" ry="39.6962"/>
<text text-anchor="middle" x="437.598" y="-397.53" font-family="Times,serif" font-size="9.00" fill="#000000">1</text>
<text text-anchor="middle" x="437.598" y="-387.53" font-family="Times,serif" font-size="9.00" fill="#000000">sum, None</text>
<text text-anchor="middle" x="437.598" y="-377.53" font-family="Times,serif" font-size="9.00" fill="#000000">id</text>
<text text-anchor="middle" x="395.5" y="-432.128" font-family="Times,serif" font-size="9.00" fill="#000000">8</text>
</g>
<!-- 12 -->
<g id="node2" class="node">
<title>12</title>
<ellipse fill="none" stroke="#ff0000" cx="384.598" cy="-39.598" rx="39.6962" ry="39.6962"/>
<text text-anchor="middle" x="384.598" y="-47.398" font-family="Times,serif" font-size="9.00" fill="#000000">4</text>
<text text-anchor="middle" x="384.598" y="-37.398" font-family="Times,serif" font-size="9.00" fill="#000000">sum, None</text>
<text text-anchor="middle" x="384.598" y="-27.398" font-family="Times,serif" font-size="9.00" fill="#000000">step</text>
<text text-anchor="middle" x="340" y="-81.996" font-family="Times,serif" font-size="9.00" fill="#000000">12</text>
</g>
<!-- 8&#45;&gt;12 -->
<g id="edge1" class="edge">
<title>8&#45;&gt;12</title>
<path fill="none" stroke="#000000" stroke-dasharray="5,2" d="M407.6331,-363.3466C401.8188,-358.7115 395.6478,-354.1055 389.598,-350.132 352.0505,-325.4711 323.0455,-342.449 299.598,-304.132 254.9047,-231.0961 313.0551,-132.1631 352.9179,-78.3591"/>
<polygon fill="#000000" stroke="#000000" points="355.9052,-80.2112 359.1401,-70.1223 350.3197,-75.9919 355.9052,-80.2112"/>
<text text-anchor="middle" x="294.598" y="-212.464" font-family="Times,serif" font-size="9.00" fill="#000000">0.07</text>
</g>
<!-- 13 -->
<g id="node6" class="node">
<title>13</title>
<ellipse fill="none" stroke="#000000" cx="479.598" cy="-158.43" rx="33.4697" ry="33.4697"/>
<text text-anchor="middle" x="479.598" y="-166.23" font-family="Times,serif" font-size="9.00" fill="#000000">3</text>
<text text-anchor="middle" x="479.598" y="-156.23" font-family="Times,serif" font-size="9.00" fill="#000000">sum, 7.6</text>
<text text-anchor="middle" x="479.598" y="-146.23" font-family="Times,serif" font-size="9.00" fill="#000000">sig</text>
<text text-anchor="middle" x="441.364" y="-194.464" font-family="Times,serif" font-size="9.00" fill="#000000">13</text>
</g>
<!-- 8&#45;&gt;13 -->
<g id="edge7" class="edge">
<title>8&#45;&gt;13</title>
<path fill="none" stroke="#000000" d="M468.0452,-363.8558C490.0069,-344.3178 516.6298,-318.4965 521.598,-304.132 531.254,-276.2134 528.7264,-266.3324 521.598,-237.664 517.94,-222.9529 510.989,-207.9703 503.7789,-195.0509"/>
<polygon fill="#000000" stroke="#000000" points="506.5868,-192.9178 498.5265,-186.0416 500.5394,-196.4434 506.5868,-192.9178"/>
<text text-anchor="middle" x="535.598" y="-268.698" font-family="Times,serif" font-size="9.00" fill="#000000">1.00</text>
</g>
<!-- 8&#45;&gt;13 -->
<g id="edge26" class="edge">
<title>8&#45;&gt;13</title>
</g>
<!-- 14 -->
<g id="node9" class="node">
<title>14</title>
<ellipse fill="none" stroke="#000000" cx="479.598" cy="-270.898" rx="33.4697" ry="33.4697"/>
<text text-anchor="middle" x="479.598" y="-278.698" font-family="Times,serif" font-size="9.00" fill="#000000">2</text>
<text text-anchor="middle" x="479.598" y="-268.698" font-family="Times,serif" font-size="9.00" fill="#000000">sum, 3.0</text>
<text text-anchor="middle" x="479.598" y="-258.698" font-family="Times,serif" font-size="9.00" fill="#000000">sig</text>
<text text-anchor="middle" x="441.364" y="-306.932" font-family="Times,serif" font-size="9.00" fill="#000000">14</text>
</g>
<!-- 8&#45;&gt;14 -->
<g id="edge27" class="edge">
<title>8&#45;&gt;14</title>
</g>
<!-- 11 -->
<g id="node3" class="node">
<title>11</title>
<ellipse fill="none" stroke="#ff0000" cx="49.598" cy="-389.73" rx="39.6962" ry="39.6962"/>
<text text-anchor="middle" x="49.598" y="-397.53" font-family="Times,serif" font-size="9.00" fill="#000000">1</text>
<text text-anchor="middle" x="49.598" y="-387.53" font-family="Times,serif" font-size="9.00" fill="#000000">sum, None</text>
<text text-anchor="middle" x="49.598" y="-377.53" font-family="Times,serif" font-size="9.00" fill="#000000">id</text>
<text text-anchor="middle" x="5" y="-432.128" font-family="Times,serif" font-size="9.00" fill="#000000">11</text>
</g>
<!-- 11&#45;&gt;12 -->
<g id="edge2" class="edge">
<title>11&#45;&gt;12</title>
<path fill="none" stroke="#000000" d="M52.7562,-350.2537C56.3559,-318.7306 63.9206,-273.9812 79.598,-237.664 85.6591,-223.6233 89.2317,-220.9075 99.598,-209.664 139.0334,-166.8912 150.5358,-156.4621 199.598,-125.196 244.0311,-96.8798 299.3541,-72.5479 337.8719,-57.1433"/>
<polygon fill="#000000" stroke="#000000" points="339.2725,-60.3532 347.2857,-53.4222 336.6992,-53.8434 339.2725,-60.3532"/>
<text text-anchor="middle" x="107.598" y="-212.464" font-family="Times,serif" font-size="9.00" fill="#000000">1.96</text>
</g>
<!-- 11&#45;&gt;13 -->
<g id="edge32" class="edge">
<title>11&#45;&gt;13</title>
</g>
<!-- 11&#45;&gt;14 -->
<g id="edge33" class="edge">
<title>11&#45;&gt;14</title>
</g>
<!-- 5 -->
<g id="node4" class="node">
<title>5</title>
<ellipse fill="none" stroke="#ff0000" cx="146.598" cy="-389.73" rx="39.6962" ry="39.6962"/>
<text text-anchor="middle" x="146.598" y="-397.53" font-family="Times,serif" font-size="9.00" fill="#000000">1</text>
<text text-anchor="middle" x="146.598" y="-387.53" font-family="Times,serif" font-size="9.00" fill="#000000">sum, None</text>
<text text-anchor="middle" x="146.598" y="-377.53" font-family="Times,serif" font-size="9.00" fill="#000000">id</text>
<text text-anchor="middle" x="104.5" y="-432.128" font-family="Times,serif" font-size="9.00" fill="#000000">5</text>
</g>
<!-- 5&#45;&gt;12 -->
<g id="edge3" class="edge">
<title>5&#45;&gt;12</title>
<path fill="none" stroke="#000000" d="M146.7068,-350.0953C148.3124,-318.076 154.1142,-272.7303 172.598,-237.664 212.4801,-162.002 292.7275,-99.5708 342.2448,-66.1071"/>
<polygon fill="#000000" stroke="#000000" points="344.435,-68.8536 350.8164,-60.3962 340.5536,-63.0282 344.435,-68.8536"/>
<text text-anchor="middle" x="196.598" y="-212.464" font-family="Times,serif" font-size="9.00" fill="#000000">0.61</text>
</g>
<!-- 5&#45;&gt;13 -->
<g id="edge20" class="edge">
<title>5&#45;&gt;13</title>
</g>
<!-- 5&#45;&gt;14 -->
<g id="edge21" class="edge">
<title>5&#45;&gt;14</title>
</g>
<!-- 4 -->
<g id="node5" class="node">
<title>4</title>
<ellipse fill="none" stroke="#ff0000" cx="1019.598" cy="-389.73" rx="39.6962" ry="39.6962"/>
<text text-anchor="middle" x="1019.598" y="-397.53" font-family="Times,serif" font-size="9.00" fill="#000000">1</text>
<text text-anchor="middle" x="1019.598" y="-387.53" font-family="Times,serif" font-size="9.00" fill="#000000">sum, None</text>
<text text-anchor="middle" x="1019.598" y="-377.53" font-family="Times,serif" font-size="9.00" fill="#000000">id</text>
<text text-anchor="middle" x="977.5" y="-432.128" font-family="Times,serif" font-size="9.00" fill="#000000">4</text>
</g>
<!-- 4&#45;&gt;12 -->
<g id="edge4" class="edge">
<title>4&#45;&gt;12</title>
<path fill="none" stroke="#c0c0c0" d="M996.0948,-357.746C954.1009,-302.7314 860.8551,-189.8798 757.598,-125.196 703.776,-91.48 522.3173,-60.3834 433.8766,-46.7976"/>
<polygon fill="#c0c0c0" stroke="#c0c0c0" points="434.2355,-43.312 423.8227,-45.2671 433.182,-50.2323 434.2355,-43.312"/>
<text text-anchor="middle" x="882.098" y="-212.464" font-family="Times,serif" font-size="9.00" fill="#000000">&#45;0.55</text>
</g>
<!-- 4&#45;&gt;13 -->
<g id="edge18" class="edge">
<title>4&#45;&gt;13</title>
</g>
<!-- 4&#45;&gt;14 -->
<g id="edge19" class="edge">
<title>4&#45;&gt;14</title>
</g>
<!-- 13&#45;&gt;12 -->
<g id="edge5" class="edge">
<title>13&#45;&gt;12</title>
<path fill="none" stroke="#000000" d="M452.0013,-139.6966C440.3517,-130.8239 427.2749,-119.4817 417.598,-107.196 412.5412,-100.7759 407.9847,-93.4553 403.9862,-86.0581"/>
<polygon fill="#000000" stroke="#000000" points="406.8817,-84.0313 399.2241,-76.7093 400.6443,-87.2085 406.8817,-84.0313"/>
<text text-anchor="middle" x="425.598" y="-99.996" font-family="Times,serif" font-size="9.00" fill="#000000">0.07</text>
</g>
<!-- 13&#45;&gt;12 -->
<g id="edge34" class="edge">
<title>13&#45;&gt;12</title>
</g>
<!-- 7 -->
<g id="node7" class="node">
<title>7</title>
<ellipse fill="none" stroke="#ff0000" cx="825.598" cy="-389.73" rx="39.6962" ry="39.6962"/>
<text text-anchor="middle" x="825.598" y="-397.53" font-family="Times,serif" font-size="9.00" fill="#000000">1</text>
<text text-anchor="middle" x="825.598" y="-387.53" font-family="Times,serif" font-size="9.00" fill="#000000">sum, None</text>
<text text-anchor="middle" x="825.598" y="-377.53" font-family="Times,serif" font-size="9.00" fill="#000000">id</text>
<text text-anchor="middle" x="783.5" y="-432.128" font-family="Times,serif" font-size="9.00" fill="#000000">7</text>
</g>
<!-- 7&#45;&gt;13 -->
<g id="edge6" class="edge">
<title>7&#45;&gt;13</title>
<path fill="none" stroke="#000000" d="M797.5865,-361.6088C764.0306,-328.9586 705.1137,-274.8423 647.598,-237.664 606.6285,-211.1812 555.4142,-188.3291 520.3693,-174.0644"/>
<polygon fill="#000000" stroke="#000000" points="521.5195,-170.7546 510.9356,-170.2729 518.909,-177.2497 521.5195,-170.7546"/>
<text text-anchor="middle" x="739.598" y="-268.698" font-family="Times,serif" font-size="9.00" fill="#000000">0.20</text>
</g>
<!-- 7&#45;&gt;13 -->
<g id="edge24" class="edge">
<title>7&#45;&gt;13</title>
</g>
<!-- 7&#45;&gt;14 -->
<g id="edge25" class="edge">
<title>7&#45;&gt;14</title>
</g>
<!-- 1 -->
<g id="node8" class="node">
<title>1</title>
<ellipse fill="none" stroke="#ff0000" cx="243.598" cy="-389.73" rx="39.6962" ry="39.6962"/>
<text text-anchor="middle" x="243.598" y="-397.53" font-family="Times,serif" font-size="9.00" fill="#000000">1</text>
<text text-anchor="middle" x="243.598" y="-387.53" font-family="Times,serif" font-size="9.00" fill="#000000">sum, None</text>
<text text-anchor="middle" x="243.598" y="-377.53" font-family="Times,serif" font-size="9.00" fill="#000000">id</text>
<text text-anchor="middle" x="201.5" y="-432.128" font-family="Times,serif" font-size="9.00" fill="#000000">1</text>
</g>
<!-- 1&#45;&gt;13 -->
<g id="edge8" class="edge">
<title>1&#45;&gt;13</title>
<path fill="none" stroke="#000000" d="M265.1236,-356.4444C287.1662,-323.8882 323.6349,-274.0366 362.598,-237.664 386.6088,-215.2495 417.5091,-194.6068 441.5239,-180.0141"/>
<polygon fill="#000000" stroke="#000000" points="443.5774,-182.8641 450.3619,-174.7265 439.9835,-176.8571 443.5774,-182.8641"/>
<text text-anchor="middle" x="370.598" y="-268.698" font-family="Times,serif" font-size="9.00" fill="#000000">0.88</text>
</g>
<!-- 1&#45;&gt;13 -->
<g id="edge12" class="edge">
<title>1&#45;&gt;13</title>
</g>
<!-- 1&#45;&gt;14 -->
<g id="edge9" class="edge">
<title>1&#45;&gt;14</title>
<path fill="none" stroke="#000000" d="M272.1618,-362.1662C278.2043,-357.5308 284.817,-353.2274 291.598,-350.132 335.4675,-330.107 354.3133,-351.2212 398.598,-332.132 416.1905,-324.5486 433.4432,-312.3692 447.4744,-300.8622"/>
<polygon fill="#000000" stroke="#000000" points="449.9691,-303.3362 455.3417,-294.2047 445.4472,-297.9927 449.9691,-303.3362"/>
<text text-anchor="middle" x="423.598" y="-324.932" font-family="Times,serif" font-size="9.00" fill="#000000">1.00</text>
</g>
<!-- 1&#45;&gt;14 -->
<g id="edge13" class="edge">
<title>1&#45;&gt;14</title>
</g>
<!-- 14&#45;&gt;12 -->
<g id="edge35" class="edge">
<title>14&#45;&gt;12</title>
</g>
<!-- 14&#45;&gt;13 -->
<g id="edge10" class="edge">
<title>14&#45;&gt;13</title>
<path fill="none" stroke="#000000" d="M479.598,-237.4584C479.598,-226.3405 479.598,-213.7916 479.598,-202.0219"/>
<polygon fill="#000000" stroke="#000000" points="483.0981,-201.9349 479.598,-191.935 476.0981,-201.935 483.0981,-201.9349"/>
<text text-anchor="middle" x="487.598" y="-212.464" font-family="Times,serif" font-size="9.00" fill="#000000">0.72</text>
</g>
<!-- 10 -->
<g id="node10" class="node">
<title>10</title>
<ellipse fill="none" stroke="#ff0000" cx="728.598" cy="-389.73" rx="39.6962" ry="39.6962"/>
<text text-anchor="middle" x="728.598" y="-397.53" font-family="Times,serif" font-size="9.00" fill="#000000">1</text>
<text text-anchor="middle" x="728.598" y="-387.53" font-family="Times,serif" font-size="9.00" fill="#000000">sum, None</text>
<text text-anchor="middle" x="728.598" y="-377.53" font-family="Times,serif" font-size="9.00" fill="#000000">id</text>
<text text-anchor="middle" x="684" y="-432.128" font-family="Times,serif" font-size="9.00" fill="#000000">10</text>
</g>
<!-- 10&#45;&gt;12 -->
<g id="edge11" class="edge">
<title>10&#45;&gt;12</title>
<path fill="none" stroke="#000000" d="M755.2725,-360.348C785.7944,-323.0047 827.6658,-257.6379 795.598,-209.664 713.4721,-86.8025 524.4501,-52.593 434.2491,-43.1508"/>
<polygon fill="#000000" stroke="#000000" points="434.5678,-39.6653 424.2723,-42.1658 433.88,-46.6314 434.5678,-39.6653"/>
<text text-anchor="middle" x="807.598" y="-212.464" font-family="Times,serif" font-size="9.00" fill="#000000">0.52</text>
</g>
<!-- 10&#45;&gt;13 -->
<g id="edge30" class="edge">
<title>10&#45;&gt;13</title>
</g>
<!-- 10&#45;&gt;14 -->
<g id="edge31" class="edge">
<title>10&#45;&gt;14</title>
</g>
<!-- 2 -->
<g id="node11" class="node">
<title>2</title>
<ellipse fill="none" stroke="#ff0000" cx="534.598" cy="-389.73" rx="39.6962" ry="39.6962"/>
<text text-anchor="middle" x="534.598" y="-397.53" font-family="Times,serif" font-size="9.00" fill="#000000">1</text>
<text text-anchor="middle" x="534.598" y="-387.53" font-family="Times,serif" font-size="9.00" fill="#000000">sum, None</text>
<text text-anchor="middle" x="534.598" y="-377.53" font-family="Times,serif" font-size="9.00" fill="#000000">id</text>
<text text-anchor="middle" x="492.5" y="-432.128" font-family="Times,serif" font-size="9.00" fill="#000000">2</text>
</g>
<!-- 2&#45;&gt;13 -->
<g id="edge14" class="edge">
<title>2&#45;&gt;13</title>
</g>
<!-- 2&#45;&gt;14 -->
<g id="edge15" class="edge">
<title>2&#45;&gt;14</title>
</g>
<!-- 3 -->
<g id="node12" class="node">
<title>3</title>
<ellipse fill="none" stroke="#ff0000" cx="631.598" cy="-389.73" rx="39.6962" ry="39.6962"/>
<text text-anchor="middle" x="631.598" y="-397.53" font-family="Times,serif" font-size="9.00" fill="#000000">1</text>
<text text-anchor="middle" x="631.598" y="-387.53" font-family="Times,serif" font-size="9.00" fill="#000000">sum, None</text>
<text text-anchor="middle" x="631.598" y="-377.53" font-family="Times,serif" font-size="9.00" fill="#000000">id</text>
<text text-anchor="middle" x="589.5" y="-432.128" font-family="Times,serif" font-size="9.00" fill="#000000">3</text>
</g>
<!-- 3&#45;&gt;13 -->
<g id="edge16" class="edge">
<title>3&#45;&gt;13</title>
</g>
<!-- 3&#45;&gt;14 -->
<g id="edge17" class="edge">
<title>3&#45;&gt;14</title>
</g>
<!-- 6 -->
<g id="node13" class="node">
<title>6</title>
<ellipse fill="none" stroke="#ff0000" cx="922.598" cy="-389.73" rx="39.6962" ry="39.6962"/>
<text text-anchor="middle" x="922.598" y="-397.53" font-family="Times,serif" font-size="9.00" fill="#000000">1</text>
<text text-anchor="middle" x="922.598" y="-387.53" font-family="Times,serif" font-size="9.00" fill="#000000">sum, None</text>
<text text-anchor="middle" x="922.598" y="-377.53" font-family="Times,serif" font-size="9.00" fill="#000000">id</text>
<text text-anchor="middle" x="880.5" y="-432.128" font-family="Times,serif" font-size="9.00" fill="#000000">6</text>
</g>
<!-- 6&#45;&gt;13 -->
<g id="edge22" class="edge">
<title>6&#45;&gt;13</title>
</g>
<!-- 6&#45;&gt;14 -->
<g id="edge23" class="edge">
<title>6&#45;&gt;14</title>
</g>
<!-- 9 -->
<g id="node14" class="node">
<title>9</title>
<ellipse fill="none" stroke="#ff0000" cx="340.598" cy="-389.73" rx="39.6962" ry="39.6962"/>
<text text-anchor="middle" x="340.598" y="-397.53" font-family="Times,serif" font-size="9.00" fill="#000000">1</text>
<text text-anchor="middle" x="340.598" y="-387.53" font-family="Times,serif" font-size="9.00" fill="#000000">sum, None</text>
<text text-anchor="middle" x="340.598" y="-377.53" font-family="Times,serif" font-size="9.00" fill="#000000">id</text>
<text text-anchor="middle" x="298.5" y="-432.128" font-family="Times,serif" font-size="9.00" fill="#000000">9</text>
</g>
<!-- 9&#45;&gt;13 -->
<g id="edge28" class="edge">
<title>9&#45;&gt;13</title>
</g>
<!-- 9&#45;&gt;14 -->
<g id="edge29" class="edge">
<title>9&#45;&gt;14</title>
</g>
</g>
</svg>
