<?xml version="1.0" encoding="UTF-8" standalone="no"?>
<!DOCTYPE svg PUBLIC "-//W3C//DTD SVG 1.1//EN"
 "http://www.w3.org/Graphics/SVG/1.1/DTD/svg11.dtd">
<!-- Generated by graphviz version 2.40.1 (20161225.0304)
 -->
<!-- Title: %3 Pages: 1 -->
<svg width="1141pt" height="447pt"
 viewBox="0.00 0.00 1140.76 447.33" xmlns="http://www.w3.org/2000/svg" xmlns:xlink="http://www.w3.org/1999/xlink">
<g id="graph0" class="graph" transform="scale(1 1) rotate(0) translate(4 443.328)">
<title>%3</title>
<polygon fill="#ffffff" stroke="transparent" points="-4,4 -4,-443.328 1136.7588,-443.328 1136.7588,4 -4,4"/>
<!-- 8 -->
<g id="node1" class="node">
<title>8</title>
<ellipse fill="none" stroke="#ff0000" cx="111.1609" cy="-389.73" rx="39.6962" ry="39.6962"/>
<text text-anchor="middle" x="111.1609" y="-397.53" font-family="Times,serif" font-size="9.00" fill="#000000">1</text>
<text text-anchor="middle" x="111.1609" y="-387.53" font-family="Times,serif" font-size="9.00" fill="#000000">sum, None</text>
<text text-anchor="middle" x="111.1609" y="-377.53" font-family="Times,serif" font-size="9.00" fill="#000000">id</text>
<text text-anchor="middle" x="69.0629" y="-432.128" font-family="Times,serif" font-size="9.00" fill="#000000">8</text>
</g>
<!-- 12 -->
<g id="node2" class="node">
<title>12</title>
<ellipse fill="none" stroke="#ff0000" cx="227.1609" cy="-39.598" rx="39.6962" ry="39.6962"/>
<text text-anchor="middle" x="227.1609" y="-47.398" font-family="Times,serif" font-size="9.00" fill="#000000">4</text>
<text text-anchor="middle" x="227.1609" y="-37.398" font-family="Times,serif" font-size="9.00" fill="#000000">sum, None</text>
<text text-anchor="middle" x="227.1609" y="-27.398" font-family="Times,serif" font-size="9.00" fill="#000000">step</text>
<text text-anchor="middle" x="182.5629" y="-81.996" font-family="Times,serif" font-size="9.00" fill="#000000">12</text>
</g>
<!-- 8&#45;&gt;12 -->
<g id="edge1" class="edge">
<title>8&#45;&gt;12</title>
<path fill="none" stroke="#000000" stroke-dasharray="5,2" d="M76.9865,-369.5106C55.5224,-354.5666 29.9316,-332.0123 19.1609,-304.132 -9.5141,-229.9065 -3.2089,-199.5386 25.1609,-125.196 30.271,-111.805 29.9798,-106.1635 41.1609,-97.196 80.544,-65.6096 137.2774,-51.2745 177.7147,-44.8125"/>
<polygon fill="#000000" stroke="#000000" points="178.25,-48.2714 187.6237,-43.3335 177.2166,-41.3481 178.25,-48.2714"/>
<text text-anchor="middle" x="9.1609" y="-212.464" font-family="Times,serif" font-size="9.00" fill="#000000">0.07</text>
</g>
<!-- 13 -->
<g id="node5" class="node">
<title>13</title>
<ellipse fill="none" stroke="#000000" cx="399.1609" cy="-158.43" rx="33.4697" ry="33.4697"/>
<text text-anchor="middle" x="399.1609" y="-166.23" font-family="Times,serif" font-size="9.00" fill="#000000">3</text>
<text text-anchor="middle" x="399.1609" y="-156.23" font-family="Times,serif" font-size="9.00" fill="#000000">sum, 7.6</text>
<text text-anchor="middle" x="399.1609" y="-146.23" font-family="Times,serif" font-size="9.00" fill="#000000">sig</text>
<text text-anchor="middle" x="360.9269" y="-194.464" font-family="Times,serif" font-size="9.00" fill="#000000">13</text>
</g>
<!-- 8&#45;&gt;13 -->
<g id="edge7" class="edge">
<title>8&#45;&gt;13</title>
<path fill="none" stroke="#000000" d="M103.9415,-350.782C98.5257,-307.7886 98.2038,-240.5812 141.1609,-209.664 158.4357,-197.2309 287.3765,-175.7352 356.1823,-164.9701"/>
<polygon fill="#000000" stroke="#000000" points="356.9367,-168.3949 366.28,-163.3998 355.8609,-161.4781 356.9367,-168.3949"/>
<text text-anchor="middle" x="124.1609" y="-268.698" font-family="Times,serif" font-size="9.00" fill="#000000">1.00</text>
</g>
<!-- 8&#45;&gt;13 -->
<g id="edge27" class="edge">
<title>8&#45;&gt;13</title>
</g>
<!-- 14 -->
<g id="node8" class="node">
<title>14</title>
<ellipse fill="none" stroke="#000000" cx="632.1609" cy="-270.898" rx="33.4697" ry="33.4697"/>
<text text-anchor="middle" x="632.1609" y="-278.698" font-family="Times,serif" font-size="9.00" fill="#000000">2</text>
<text text-anchor="middle" x="632.1609" y="-268.698" font-family="Times,serif" font-size="9.00" fill="#000000">sum, 3.0</text>
<text text-anchor="middle" x="632.1609" y="-258.698" font-family="Times,serif" font-size="9.00" fill="#000000">sig</text>
<text text-anchor="middle" x="593.9269" y="-306.932" font-family="Times,serif" font-size="9.00" fill="#000000">14</text>
</g>
<!-- 8&#45;&gt;14 -->
<g id="edge28" class="edge">
<title>8&#45;&gt;14</title>
</g>
<!-- 11 -->
<g id="node3" class="node">
<title>11</title>
<ellipse fill="none" stroke="#ff0000" cx="208.1609" cy="-389.73" rx="39.6962" ry="39.6962"/>
<text text-anchor="middle" x="208.1609" y="-397.53" font-family="Times,serif" font-size="9.00" fill="#000000">1</text>
<text text-anchor="middle" x="208.1609" y="-387.53" font-family="Times,serif" font-size="9.00" fill="#000000">sum, None</text>
<text text-anchor="middle" x="208.1609" y="-377.53" font-family="Times,serif" font-size="9.00" fill="#000000">id</text>
<text text-anchor="middle" x="163.5629" y="-432.128" font-family="Times,serif" font-size="9.00" fill="#000000">11</text>
</g>
<!-- 11&#45;&gt;12 -->
<g id="edge2" class="edge">
<title>11&#45;&gt;12</title>
<path fill="none" stroke="#000000" d="M179.6045,-362.1499C173.5614,-357.5159 166.9465,-353.2172 160.1609,-350.132 115.4632,-329.81 86.5346,-366.1844 51.1609,-332.132 11.2619,-293.7235 22.3498,-264.7401 28.1609,-209.664 33.5238,-158.8349 18.0179,-135.2303 52.1609,-97.196 69.1448,-78.2763 132.5223,-60.6427 178.1225,-49.994"/>
<polygon fill="#000000" stroke="#000000" points="179.17,-53.3448 188.136,-47.7003 177.607,-46.5215 179.17,-53.3448"/>
<text text-anchor="middle" x="36.1609" y="-212.464" font-family="Times,serif" font-size="9.00" fill="#000000">1.05</text>
</g>
<!-- 11&#45;&gt;13 -->
<g id="edge6" class="edge">
<title>11&#45;&gt;13</title>
<path fill="none" stroke="#000000" d="M199.5318,-350.716C192.7452,-308.3294 190.2794,-242.308 231.1609,-209.664 267.0536,-181.0035 318.872,-168.3327 355.4481,-162.7576"/>
<polygon fill="#000000" stroke="#000000" points="356.387,-166.1603 365.8041,-161.3055 355.4149,-159.2281 356.387,-166.1603"/>
<text text-anchor="middle" x="217.1609" y="-268.698" font-family="Times,serif" font-size="9.00" fill="#000000">1.34</text>
</g>
<!-- 11&#45;&gt;13 -->
<g id="edge33" class="edge">
<title>11&#45;&gt;13</title>
</g>
<!-- 11&#45;&gt;14 -->
<g id="edge9" class="edge">
<title>11&#45;&gt;14</title>
<path fill="none" stroke="#000000" d="M236.5496,-361.7631C242.6073,-357.1629 249.2705,-352.9755 256.1609,-350.132 335.7964,-317.2685 365.7224,-353.5762 449.1609,-332.132 459.9566,-329.3575 461.7288,-326.0588 472.1609,-322.132 511.742,-307.2331 557.8157,-292.7751 590.3288,-283.0385"/>
<polygon fill="#000000" stroke="#000000" points="591.3746,-286.379 599.9616,-280.1731 589.3787,-279.6696 591.3746,-286.379"/>
<text text-anchor="middle" x="480.1609" y="-324.932" font-family="Times,serif" font-size="9.00" fill="#000000">0.10</text>
</g>
<!-- 11&#45;&gt;14 -->
<g id="edge34" class="edge">
<title>11&#45;&gt;14</title>
</g>
<!-- 5 -->
<g id="node4" class="node">
<title>5</title>
<ellipse fill="none" stroke="#ff0000" cx="305.1609" cy="-389.73" rx="39.6962" ry="39.6962"/>
<text text-anchor="middle" x="305.1609" y="-397.53" font-family="Times,serif" font-size="9.00" fill="#000000">1</text>
<text text-anchor="middle" x="305.1609" y="-387.53" font-family="Times,serif" font-size="9.00" fill="#000000">sum, None</text>
<text text-anchor="middle" x="305.1609" y="-377.53" font-family="Times,serif" font-size="9.00" fill="#000000">id</text>
<text text-anchor="middle" x="263.0629" y="-432.128" font-family="Times,serif" font-size="9.00" fill="#000000">5</text>
</g>
<!-- 5&#45;&gt;12 -->
<g id="edge3" class="edge">
<title>5&#45;&gt;12</title>
<path fill="none" stroke="#000000" d="M276.0326,-362.5778C270.0893,-357.9628 263.6574,-353.5614 257.1609,-350.132 192.104,-315.7902 142.3636,-362.9357 98.1609,-304.132 41.5681,-228.8457 133.3543,-124.8281 189.1829,-72.4873"/>
<polygon fill="#000000" stroke="#000000" points="191.829,-74.808 196.8028,-65.4531 187.0809,-69.6645 191.829,-74.808"/>
<text text-anchor="middle" x="96.1609" y="-212.464" font-family="Times,serif" font-size="9.00" fill="#000000">0.61</text>
</g>
<!-- 5&#45;&gt;13 -->
<g id="edge21" class="edge">
<title>5&#45;&gt;13</title>
</g>
<!-- 5&#45;&gt;14 -->
<g id="edge22" class="edge">
<title>5&#45;&gt;14</title>
</g>
<!-- 13&#45;&gt;12 -->
<g id="edge4" class="edge">
<title>13&#45;&gt;12</title>
<path fill="none" stroke="#000000" d="M367.5053,-147.5159C344.499,-138.7042 313.2939,-124.8741 289.1609,-107.196 278.1048,-99.0971 267.4754,-88.8038 258.2352,-78.7069"/>
<polygon fill="#000000" stroke="#000000" points="260.7099,-76.2224 251.4559,-71.0636 255.473,-80.8673 260.7099,-76.2224"/>
<text text-anchor="middle" x="297.1609" y="-99.996" font-family="Times,serif" font-size="9.00" fill="#000000">0.07</text>
</g>
<!-- 13&#45;&gt;12 -->
<g id="edge35" class="edge">
<title>13&#45;&gt;12</title>
</g>
<!-- 7 -->
<g id="node6" class="node">
<title>7</title>
<ellipse fill="none" stroke="#ff0000" cx="402.1609" cy="-389.73" rx="39.6962" ry="39.6962"/>
<text text-anchor="middle" x="402.1609" y="-397.53" font-family="Times,serif" font-size="9.00" fill="#000000">1</text>
<text text-anchor="middle" x="402.1609" y="-387.53" font-family="Times,serif" font-size="9.00" fill="#000000">sum, None</text>
<text text-anchor="middle" x="402.1609" y="-377.53" font-family="Times,serif" font-size="9.00" fill="#000000">id</text>
<text text-anchor="middle" x="360.0629" y="-432.128" font-family="Times,serif" font-size="9.00" fill="#000000">7</text>
</g>
<!-- 7&#45;&gt;13 -->
<g id="edge5" class="edge">
<title>7&#45;&gt;13</title>
<path fill="none" stroke="#000000" stroke-dasharray="5,2" d="M372.4024,-363.3556C363.7358,-354.2563 355.0308,-343.477 349.1609,-332.132 343.3124,-320.8285 344.5017,-316.7882 343.1609,-304.132 340.0487,-274.7551 335.5786,-266.2157 343.1609,-237.664 346.8397,-223.8113 351.1745,-221.5657 359.1609,-209.664 363.0053,-203.9348 367.295,-198.0199 371.598,-192.3347"/>
<polygon fill="#000000" stroke="#000000" points="374.5231,-194.2731 377.8615,-184.2179 368.9813,-189.9965 374.5231,-194.2731"/>
<text text-anchor="middle" x="351.1609" y="-268.698" font-family="Times,serif" font-size="9.00" fill="#000000">0.20</text>
</g>
<!-- 7&#45;&gt;13 -->
<g id="edge25" class="edge">
<title>7&#45;&gt;13</title>
</g>
<!-- 7&#45;&gt;14 -->
<g id="edge26" class="edge">
<title>7&#45;&gt;14</title>
</g>
<!-- 1 -->
<g id="node7" class="node">
<title>1</title>
<ellipse fill="none" stroke="#ff0000" cx="510.1609" cy="-389.73" rx="39.6962" ry="39.6962"/>
<text text-anchor="middle" x="510.1609" y="-397.53" font-family="Times,serif" font-size="9.00" fill="#000000">1</text>
<text text-anchor="middle" x="510.1609" y="-387.53" font-family="Times,serif" font-size="9.00" fill="#000000">sum, None</text>
<text text-anchor="middle" x="510.1609" y="-377.53" font-family="Times,serif" font-size="9.00" fill="#000000">id</text>
<text text-anchor="middle" x="468.0629" y="-432.128" font-family="Times,serif" font-size="9.00" fill="#000000">1</text>
</g>
<!-- 1&#45;&gt;13 -->
<g id="edge8" class="edge">
<title>1&#45;&gt;13</title>
<path fill="none" stroke="#000000" stroke-dasharray="5,2" d="M478.2419,-366.293C469.6911,-360.5812 460.2823,-354.7835 451.1609,-350.132 430.4924,-339.5922 415.6037,-351.0413 402.1609,-332.132 394.814,-321.7976 395.8247,-250.0893 397.3832,-202.0968"/>
<polygon fill="#000000" stroke="#000000" points="400.8863,-202.0635 397.732,-191.9491 393.8904,-201.8229 400.8863,-202.0635"/>
<text text-anchor="middle" x="405.1609" y="-268.698" font-family="Times,serif" font-size="9.00" fill="#000000">0.72</text>
</g>
<!-- 1&#45;&gt;13 -->
<g id="edge13" class="edge">
<title>1&#45;&gt;13</title>
</g>
<!-- 1&#45;&gt;14 -->
<g id="edge10" class="edge">
<title>1&#45;&gt;14</title>
<path fill="none" stroke="#000000" d="M538.7644,-361.8692C557.4171,-343.7009 581.7629,-319.9873 600.9211,-301.3265"/>
<polygon fill="#000000" stroke="#000000" points="603.5295,-303.6719 608.2509,-294.1872 598.6453,-298.6574 603.5295,-303.6719"/>
<text text-anchor="middle" x="586.1609" y="-324.932" font-family="Times,serif" font-size="9.00" fill="#000000">1.00</text>
</g>
<!-- 1&#45;&gt;14 -->
<g id="edge14" class="edge">
<title>1&#45;&gt;14</title>
</g>
<!-- 14&#45;&gt;12 -->
<g id="edge36" class="edge">
<title>14&#45;&gt;12</title>
</g>
<!-- 14&#45;&gt;13 -->
<g id="edge11" class="edge">
<title>14&#45;&gt;13</title>
<path fill="none" stroke="#000000" d="M602.1772,-256.425C560.4367,-236.2771 484.7509,-199.7439 438.5146,-177.4258"/>
<polygon fill="#000000" stroke="#000000" points="439.9258,-174.2206 429.3985,-173.0256 436.8828,-180.5247 439.9258,-174.2206"/>
<text text-anchor="middle" x="530.1609" y="-212.464" font-family="Times,serif" font-size="9.00" fill="#000000">0.72</text>
</g>
<!-- 2 -->
<g id="node9" class="node">
<title>2</title>
<ellipse fill="none" stroke="#ff0000" cx="608.1609" cy="-389.73" rx="39.6962" ry="39.6962"/>
<text text-anchor="middle" x="608.1609" y="-397.53" font-family="Times,serif" font-size="9.00" fill="#000000">1</text>
<text text-anchor="middle" x="608.1609" y="-387.53" font-family="Times,serif" font-size="9.00" fill="#000000">sum, None</text>
<text text-anchor="middle" x="608.1609" y="-377.53" font-family="Times,serif" font-size="9.00" fill="#000000">id</text>
<text text-anchor="middle" x="566.0629" y="-432.128" font-family="Times,serif" font-size="9.00" fill="#000000">2</text>
</g>
<!-- 2&#45;&gt;13 -->
<g id="edge15" class="edge">
<title>2&#45;&gt;13</title>
</g>
<!-- 2&#45;&gt;14 -->
<g id="edge12" class="edge">
<title>2&#45;&gt;14</title>
<path fill="none" stroke="#000000" d="M621.9323,-352.277C623.9646,-345.6388 625.8217,-338.7366 627.1609,-332.132 628.3286,-326.3728 629.2254,-320.2563 629.9136,-314.2032"/>
<polygon fill="#000000" stroke="#000000" points="633.4069,-314.4408 630.8861,-304.1502 626.4394,-313.7667 633.4069,-314.4408"/>
<text text-anchor="middle" x="636.1609" y="-324.932" font-family="Times,serif" font-size="9.00" fill="#000000">1.25</text>
</g>
<!-- 2&#45;&gt;14 -->
<g id="edge16" class="edge">
<title>2&#45;&gt;14</title>
</g>
<!-- 3 -->
<g id="node10" class="node">
<title>3</title>
<ellipse fill="none" stroke="#ff0000" cx="705.1609" cy="-389.73" rx="39.6962" ry="39.6962"/>
<text text-anchor="middle" x="705.1609" y="-397.53" font-family="Times,serif" font-size="9.00" fill="#000000">1</text>
<text text-anchor="middle" x="705.1609" y="-387.53" font-family="Times,serif" font-size="9.00" fill="#000000">sum, None</text>
<text text-anchor="middle" x="705.1609" y="-377.53" font-family="Times,serif" font-size="9.00" fill="#000000">id</text>
<text text-anchor="middle" x="663.0629" y="-432.128" font-family="Times,serif" font-size="9.00" fill="#000000">3</text>
</g>
<!-- 3&#45;&gt;13 -->
<g id="edge17" class="edge">
<title>3&#45;&gt;13</title>
</g>
<!-- 3&#45;&gt;14 -->
<g id="edge18" class="edge">
<title>3&#45;&gt;14</title>
</g>
<!-- 4 -->
<g id="node11" class="node">
<title>4</title>
<ellipse fill="none" stroke="#ff0000" cx="802.1609" cy="-389.73" rx="39.6962" ry="39.6962"/>
<text text-anchor="middle" x="802.1609" y="-397.53" font-family="Times,serif" font-size="9.00" fill="#000000">1</text>
<text text-anchor="middle" x="802.1609" y="-387.53" font-family="Times,serif" font-size="9.00" fill="#000000">sum, None</text>
<text text-anchor="middle" x="802.1609" y="-377.53" font-family="Times,serif" font-size="9.00" fill="#000000">id</text>
<text text-anchor="middle" x="760.0629" y="-432.128" font-family="Times,serif" font-size="9.00" fill="#000000">4</text>
</g>
<!-- 4&#45;&gt;13 -->
<g id="edge19" class="edge">
<title>4&#45;&gt;13</title>
</g>
<!-- 4&#45;&gt;14 -->
<g id="edge20" class="edge">
<title>4&#45;&gt;14</title>
</g>
<!-- 6 -->
<g id="node12" class="node">
<title>6</title>
<ellipse fill="none" stroke="#ff0000" cx="899.1609" cy="-389.73" rx="39.6962" ry="39.6962"/>
<text text-anchor="middle" x="899.1609" y="-397.53" font-family="Times,serif" font-size="9.00" fill="#000000">1</text>
<text text-anchor="middle" x="899.1609" y="-387.53" font-family="Times,serif" font-size="9.00" fill="#000000">sum, None</text>
<text text-anchor="middle" x="899.1609" y="-377.53" font-family="Times,serif" font-size="9.00" fill="#000000">id</text>
<text text-anchor="middle" x="857.0629" y="-432.128" font-family="Times,serif" font-size="9.00" fill="#000000">6</text>
</g>
<!-- 6&#45;&gt;13 -->
<g id="edge23" class="edge">
<title>6&#45;&gt;13</title>
</g>
<!-- 6&#45;&gt;14 -->
<g id="edge24" class="edge">
<title>6&#45;&gt;14</title>
</g>
<!-- 9 -->
<g id="node13" class="node">
<title>9</title>
<ellipse fill="none" stroke="#ff0000" cx="996.1609" cy="-389.73" rx="39.6962" ry="39.6962"/>
<text text-anchor="middle" x="996.1609" y="-397.53" font-family="Times,serif" font-size="9.00" fill="#000000">1</text>
<text text-anchor="middle" x="996.1609" y="-387.53" font-family="Times,serif" font-size="9.00" fill="#000000">sum, None</text>
<text text-anchor="middle" x="996.1609" y="-377.53" font-family="Times,serif" font-size="9.00" fill="#000000">id</text>
<text text-anchor="middle" x="954.0629" y="-432.128" font-family="Times,serif" font-size="9.00" fill="#000000">9</text>
</g>
<!-- 9&#45;&gt;13 -->
<g id="edge29" class="edge">
<title>9&#45;&gt;13</title>
</g>
<!-- 9&#45;&gt;14 -->
<g id="edge30" class="edge">
<title>9&#45;&gt;14</title>
</g>
<!-- 10 -->
<g id="node14" class="node">
<title>10</title>
<ellipse fill="none" stroke="#ff0000" cx="1093.1609" cy="-389.73" rx="39.6962" ry="39.6962"/>
<text text-anchor="middle" x="1093.1609" y="-397.53" font-family="Times,serif" font-size="9.00" fill="#000000">1</text>
<text text-anchor="middle" x="1093.1609" y="-387.53" font-family="Times,serif" font-size="9.00" fill="#000000">sum, None</text>
<text text-anchor="middle" x="1093.1609" y="-377.53" font-family="Times,serif" font-size="9.00" fill="#000000">id</text>
<text text-anchor="middle" x="1048.5629" y="-432.128" font-family="Times,serif" font-size="9.00" fill="#000000">10</text>
</g>
<!-- 10&#45;&gt;13 -->
<g id="edge31" class="edge">
<title>10&#45;&gt;13</title>
</g>
<!-- 10&#45;&gt;14 -->
<g id="edge32" class="edge">
<title>10&#45;&gt;14</title>
</g>
</g>
</svg>
